<?xml version="1.0" standalone="no"?>
<!DOCTYPE svg PUBLIC "-//W3C//DTD SVG 20010904//EN"
 "http://www.w3.org/TR/2001/REC-SVG-20010904/DTD/svg10.dtd">
<svg version="1.0" xmlns="http://www.w3.org/2000/svg"
 width="553.000000pt" height="496.000000pt" viewBox="0 0 553.000000 496.000000"
 preserveAspectRatio="xMidYMid meet">

<g transform="translate(0.000000,496.000000) scale(0.100000,-0.100000)"
fill="#000000" stroke="none">
<path d="M0 4335 l0 -625 283 1 c155 0 352 5 437 11 192 13 379 16 404 5 38
-15 -1 -29 -83 -28 -44 0 -92 -4 -106 -9 -16 -6 -33 -7 -43 -1 -10 6 -26 5
-41 -2 -15 -5 -102 -12 -196 -13 -93 -2 -191 -7 -217 -12 -25 -5 -52 -6 -58
-2 -6 4 -93 6 -193 6 l-182 -2 -3 -1832 -2 -1832 2765 0 2765 0 0 1886 0 1887
-86 -7 c-52 -4 -98 -13 -115 -23 -24 -14 -30 -15 -45 -2 -22 18 -328 18 -363
0 -17 -9 -35 -10 -73 -2 -28 6 -227 14 -447 18 -218 3 -405 9 -416 14 -24 9
39 13 200 10 77 -2 125 3 160 14 28 8 91 17 140 20 125 7 588 15 838 15 l207
0 0 565 0 565 -455 0 -456 0 15 -28 c16 -31 36 -50 70 -67 32 -16 26 -47 -14
-69 -38 -20 -101 -101 -137 -175 -25 -50 -29 -110 -12 -144 10 -17 9 -23 -6
-32 -10 -5 -74 -47 -144 -93 -69 -46 -130 -84 -135 -85 -6 -1 -11 5 -13 14 -3
10 7 21 27 29 16 7 30 16 30 21 0 4 27 35 60 69 51 52 62 70 81 133 11 39 45
124 75 187 l54 116 -21 62 -21 62 -517 0 -517 0 -27 -83 c-34 -105 -34 -117 4
-153 17 -16 40 -48 51 -72 12 -26 46 -65 82 -95 87 -74 216 -206 216 -222 0
-8 8 -16 18 -20 37 -12 102 -80 108 -112 6 -30 4 -33 -18 -33 -33 0 -78 36
-78 62 0 23 -58 82 -111 113 -18 11 -49 44 -69 74 -19 29 -51 61 -70 72 -40
21 -100 25 -117 8 -9 -9 -18 -8 -37 5 -27 17 -34 44 -15 63 28 28 -41 128
-102 148 -46 16 -48 39 -7 78 42 39 73 91 81 135 l7 32 -645 0 -644 0 26 -45
c30 -54 23 -69 -35 -79 -52 -8 -95 -56 -122 -138 -16 -48 -21 -79 -16 -110 14
-99 17 -92 -46 -99 -65 -7 -75 -13 -114 -72 -59 -89 -91 -111 -80 -56 6 29 34
77 114 189 18 26 36 67 42 97 5 29 34 102 65 162 30 61 55 120 55 131 0 20 -4
20 -1005 20 l-1005 0 0 -625z m1050 119 c40 -19 86 -57 182 -151 138 -137 139
-138 119 -228 l-6 -29 -35 43 c-19 23 -52 63 -74 89 -21 25 -46 64 -56 87 -10
22 -26 48 -37 58 -25 22 -191 107 -210 107 -8 0 -46 -7 -85 -16 -60 -14 -77
-23 -119 -63 -47 -45 -49 -50 -49 -102 0 -57 -12 -81 -36 -72 -38 14 -3 149
56 216 46 52 69 63 170 81 86 15 104 13 180 -20z m1916 -134 c8 -19 49 -86 91
-148 76 -112 76 -112 70 -166 -3 -30 -13 -79 -23 -109 -14 -46 -15 -59 -4 -71
7 -9 19 -16 26 -16 17 0 103 45 159 83 22 15 49 27 61 27 11 0 49 11 83 25 72
30 83 28 161 -25 72 -48 122 -79 198 -124 38 -23 62 -44 62 -55 0 -10 -25 -46
-56 -82 -31 -35 -64 -77 -74 -93 l-18 -28 -31 42 c-16 23 -35 58 -42 78 -16
51 -26 62 -84 88 -60 28 -75 30 -75 7 1 -10 -21 -59 -47 -110 -40 -76 -55 -95
-88 -112 -22 -12 -54 -32 -72 -45 -19 -14 -61 -28 -110 -37 -89 -15 -247 -19
-251 -5 -2 5 25 17 60 27 254 70 272 77 302 111 16 18 64 73 107 121 98 109
100 122 22 114 -105 -11 -266 -81 -337 -146 -34 -30 -97 -58 -159 -70 -100
-18 -126 -39 -196 -159 -30 -51 -43 -87 -47 -125 -9 -96 -15 -117 -29 -117
-12 0 -15 16 -15 73 0 89 -9 107 -42 85 -34 -23 -220 -195 -230 -213 -12 -20
-3 -22 111 -29 89 -5 137 -21 101 -34 -24 -8 -70 -59 -70 -76 0 -27 31 -18 84
27 28 23 59 49 70 57 13 10 46 15 115 15 71 0 103 5 121 16 14 9 39 20 55 24
17 3 40 16 52 27 32 30 55 20 75 -36 19 -53 17 -66 -6 -47 -11 10 -39 8 -128
-8 -125 -22 -148 -37 -148 -95 0 -49 -13 -63 -43 -47 -48 26 -70 -23 -31 -69
19 -22 23 -34 16 -47 -11 -20 7 -149 39 -284 27 -114 21 -134 -41 -149 -51
-12 -83 -2 -95 29 -3 9 -8 121 -11 251 -3 129 -7 241 -9 248 -3 9 -41 12 -152
11 -157 -1 -169 1 -266 52 -69 37 -75 35 -200 -48 -44 -29 -86 -53 -94 -53 -7
0 -42 24 -76 53 -35 29 -117 94 -183 144 -124 94 -172 141 -200 196 -9 17 -41
68 -70 112 l-54 81 17 78 c23 101 47 122 154 136 41 5 97 14 124 20 170 40
184 40 348 8 83 -16 195 -33 247 -36 l95 -7 -1 -40 c-1 -83 -17 -206 -27 -212
-6 -3 -28 15 -50 40 -27 32 -47 47 -63 47 -44 0 -126 -51 -193 -120 -69 -71
-121 -110 -121 -91 0 11 61 75 143 148 26 23 47 46 47 51 0 5 12 14 26 21 28
12 133 92 133 102 1 3 -86 9 -191 12 -173 5 -197 4 -235 -13 -23 -10 -46 -28
-52 -39 -18 -32 -41 -27 -41 9 0 20 -6 33 -17 37 -18 7 -133 -29 -171 -53 -21
-14 -21 -16 -7 -52 9 -20 25 -49 36 -65 13 -19 19 -40 17 -68 -1 -30 3 -44 15
-50 9 -5 37 -41 62 -79 52 -82 77 -89 135 -42 19 16 45 34 58 41 22 12 23 11
12 -9 -13 -25 10 -100 44 -139 18 -20 27 -22 72 -18 69 7 176 58 224 106 31
31 49 41 87 46 75 10 80 13 140 72 91 88 115 103 183 113 34 5 65 11 68 15 8
8 -83 99 -153 153 -77 58 -125 103 -125 117 0 17 108 77 133 73 20 -4 18 -6
-15 -27 -21 -13 -38 -29 -38 -37 0 -19 101 -63 170 -75 64 -10 60 -13 226 126
221 184 232 209 140 317 -17 20 -39 48 -49 62 -19 28 -55 34 -101 16 -32 -12
-32 -23 -1 -64 14 -18 25 -38 25 -44 0 -15 -36 -16 -45 -2 -11 18 -49 10 -100
-20 -45 -26 -51 -28 -67 -14 -21 20 -44 12 -85 -26 -37 -34 -39 -41 -20 -70
16 -27 0 -37 -68 -45 -77 -10 -129 -3 -133 17 -7 35 49 190 79 220 28 29 31
29 95 23 61 -7 66 -6 71 13 3 13 15 22 32 24 21 2 25 8 23 26 -3 20 1 22 37
22 34 0 41 3 41 19 0 12 11 23 30 30 17 5 30 14 30 20 0 5 8 12 19 16 10 3 44
26 76 50 l58 46 24 -23 c14 -13 31 -39 39 -58z m-1336 -66 c0 -17 -22 -14 -28
4 -2 7 3 12 12 12 9 0 16 -7 16 -16z m322 -290 c28 -14 87 -32 132 -41 44 -8
87 -20 94 -26 19 -16 95 -168 87 -175 -4 -4 -27 5 -53 19 -26 14 -73 41 -106
59 -45 25 -74 34 -128 38 l-69 5 6 29 c7 29 7 29 -32 22 -53 -10 -151 -44
-266 -93 -54 -23 -103 -41 -109 -39 -23 8 50 69 137 114 50 26 115 63 145 81
67 39 96 41 162 7z m685 -50 c2 -7 -17 -23 -42 -37 -51 -29 -54 -26 -25 21 15
24 27 32 42 30 12 -2 23 -8 25 -14z m1018 -384 c4 -6 12 -10 18 -9 30 4 39 -4
56 -44 12 -28 33 -52 60 -70 65 -43 55 -60 -69 -122 -79 -39 -120 -70 -120
-91 0 -7 16 -31 35 -53 22 -27 32 -48 28 -59 -9 -26 -73 -109 -142 -185 -39
-43 -61 -76 -61 -91 0 -23 4 -25 78 -31 102 -8 207 -29 279 -56 32 -11 76 -28
98 -36 79 -28 230 -96 250 -112 11 -9 37 -25 57 -35 57 -29 188 -138 261 -216
87 -94 118 -168 124 -302 7 -122 -8 -171 -82 -283 -70 -106 -83 -119 -205
-211 -118 -88 -322 -196 -465 -245 -139 -47 -406 -119 -445 -119 -19 0 -77 -9
-127 -20 -237 -50 -924 -54 -1138 -7 -90 19 -215 45 -285 58 -62 12 -177 44
-230 64 -19 8 -46 17 -60 20 -36 10 -97 37 -239 108 -276 139 -467 357 -479
550 -16 269 198 517 599 693 149 65 211 83 619 180 109 26 374 27 413 1 28
-18 49 -55 40 -69 -2 -5 -21 2 -42 14 -44 25 -71 19 -71 -17 0 -13 -13 -39
-29 -57 -31 -35 -50 -34 -31 2 15 28 10 32 -47 37 -41 4 -52 1 -75 -21 -41
-37 -35 -108 11 -143 14 -10 10 -17 -31 -57 -26 -25 -61 -52 -78 -61 -29 -15
-30 -15 -22 2 5 10 17 44 27 75 l18 57 -27 35 c-26 34 -34 66 -17 66 5 0 14
-7 21 -15 18 -22 39 -18 46 9 8 33 -12 66 -40 66 -28 0 -86 -19 -86 -29 0 -3
-22 -44 -50 -91 -41 -70 -55 -86 -80 -91 l-30 -6 0 78 c0 44 -3 79 -6 79 -3 0
-24 -13 -47 -29 -23 -16 -71 -39 -107 -52 -36 -12 -72 -28 -80 -35 -8 -7 -35
-17 -60 -23 -25 -5 -54 -20 -65 -33 -11 -13 -30 -24 -43 -25 -42 -3 -209 -102
-231 -136 -11 -18 -31 -42 -45 -55 -14 -12 -26 -30 -26 -40 0 -27 -11 -34 -25
-16 -8 11 -19 14 -33 10 -25 -8 -102 -111 -102 -136 0 -9 -5 -21 -11 -27 -8
-8 -10 -43 -7 -102 5 -103 22 -139 76 -156 39 -11 40 -23 6 -50 -26 -21 -26
-22 -11 -52 18 -34 34 -43 80 -43 52 0 77 -11 83 -36 24 -95 370 -251 718
-324 308 -63 406 -74 721 -74 456 -1 663 27 1022 135 177 53 309 113 395 178
30 22 65 41 76 41 14 0 61 37 127 98 89 83 109 107 136 167 23 50 33 90 37
140 4 67 2 73 -38 150 -57 110 -81 138 -164 199 -103 76 -138 95 -201 111 -30
8 -72 23 -93 34 -20 10 -56 22 -79 26 -24 4 -45 11 -49 16 -3 5 -13 9 -23 9
-11 0 -29 8 -42 19 l-23 18 22 7 c40 13 16 76 -29 76 -16 0 -19 -7 -19 -45 0
-41 -2 -45 -24 -45 -14 0 -44 16 -68 35 -69 56 -88 63 -105 40 -7 -11 -11 -29
-8 -40 18 -63 17 -71 -9 -89 -14 -9 -41 -19 -59 -22 l-32 -5 36 16 c28 12 38
24 43 48 6 31 -4 47 -38 61 -6 2 -1 11 12 21 29 21 28 57 -2 91 l-23 28 -74
-17 c-41 -9 -117 -25 -169 -37 -67 -15 -121 -20 -185 -18 l-89 3 -15 47 c-17
55 -12 67 21 44 33 -24 63 -20 101 14 40 34 46 36 61 15 7 -10 34 -18 68 -22
46 -5 64 -1 102 18 82 41 114 125 56 149 -39 16 -31 26 28 34 26 3 57 13 69
21 39 27 34 95 -7 95 -11 0 -20 2 -20 5 0 29 93 155 114 155 23 0 156 149 156
175 0 7 -25 25 -55 40 -30 16 -55 32 -55 36 0 23 82 40 95 19z m-781 -127 c8
-16 35 -55 60 -87 25 -33 46 -63 46 -68 0 -13 -74 -9 -118 6 -22 8 -61 18 -86
21 -25 4 -46 12 -46 19 0 35 83 136 112 136 9 0 24 -12 32 -27z m-2341 -150
c-7 -2 -21 -2 -30 0 -10 3 -4 5 12 5 17 0 24 -2 18 -5z m2687 -283 c0 -15 -38
-32 -45 -20 -3 5 -3 15 0 20 8 13 45 13 45 0z m762 -136 c61 -8 128 -22 147
-31 20 -8 77 -28 126 -43 109 -34 212 -76 243 -101 13 -10 45 -25 71 -34 26
-8 61 -29 77 -46 16 -17 74 -62 129 -99 55 -37 107 -75 114 -84 8 -10 38 -33
67 -52 61 -41 347 -331 410 -417 85 -115 94 -221 34 -430 -66 -235 -176 -387
-453 -631 -57 -50 -86 -84 -109 -129 -76 -153 -200 -315 -297 -387 -57 -43
-165 -82 -278 -100 -37 -6 -78 -15 -91 -21 -29 -12 -425 -55 -637 -69 -88 -6
-200 -13 -250 -16 -118 -8 -344 11 -492 42 -64 13 -131 24 -148 24 -17 0 -35
4 -40 9 -6 6 -53 19 -105 31 -52 12 -156 41 -232 66 -164 53 -206 62 -543 109
-302 42 -649 122 -810 187 -55 23 -156 71 -225 108 -69 37 -135 71 -147 75
-13 3 -23 10 -23 15 0 5 -33 33 -72 63 -84 62 -185 167 -222 230 -37 63 -54
143 -66 317 -22 315 15 455 184 701 80 118 129 170 216 229 19 13 69 55 110
92 50 46 87 72 115 79 22 6 72 30 110 54 108 68 256 122 614 227 18 5 45 7 60
3 25 -6 25 -7 7 -21 -11 -8 -36 -14 -57 -14 -21 0 -47 -8 -62 -20 -14 -11 -35
-20 -48 -20 -12 0 -41 -8 -63 -19 -23 -10 -70 -31 -106 -46 -111 -47 -281
-135 -355 -182 -138 -89 -334 -244 -400 -315 -129 -141 -225 -314 -245 -443
-21 -134 6 -525 40 -580 29 -46 209 -218 260 -249 25 -15 68 -41 95 -58 28
-17 78 -41 111 -54 34 -12 85 -38 114 -58 28 -20 71 -40 93 -46 23 -6 60 -17
82 -25 22 -8 60 -17 85 -20 24 -4 69 -17 100 -29 66 -28 90 -34 200 -51 47 -8
117 -21 155 -29 39 -8 138 -20 220 -26 194 -14 248 -24 375 -65 270 -89 439
-134 590 -160 70 -12 135 -26 272 -61 65 -16 213 -18 273 -4 22 5 107 14 190
20 82 6 168 15 192 20 23 6 108 15 190 20 81 6 173 17 203 24 30 8 80 17 110
21 49 5 105 17 234 47 67 16 207 164 273 288 139 258 130 243 171 273 166 121
283 238 373 373 37 57 85 185 114 305 21 89 19 171 -4 217 -10 20 -113 134
-229 252 -190 195 -223 224 -356 315 -80 55 -175 120 -211 145 -102 70 -275
155 -404 196 -24 8 -49 18 -56 24 -7 6 -32 14 -56 19 -24 5 -64 16 -89 25 -25
8 -58 18 -74 23 -32 9 -48 33 -22 33 8 0 66 -7 128 -16z m-1534 -196 c-2 -13
-10 -23 -18 -23 -8 0 -16 10 -18 23 -3 17 2 22 18 22 16 0 21 -5 18 -22z m517
-58 c21 0 26 -4 23 -21 -7 -52 -81 -49 -106 4 -18 38 -7 50 28 32 16 -8 41
-15 55 -15z m-613 -5 c0 -5 -5 -11 -11 -13 -6 -2 -11 4 -11 13 0 9 5 15 11 13
6 -2 11 -8 11 -13z m984 -61 c16 -24 16 -27 1 -54 -24 -39 -21 -63 9 -94 27
-26 35 -30 67 -27 21 3 23 -15 1 -23 -31 -12 -69 -5 -108 18 -29 18 -47 23
-74 19 -34 -6 -35 -6 -28 23 19 87 19 92 -3 104 -33 17 -16 28 34 22 41 -4 47
-2 52 17 7 28 29 27 49 -5z m-1530 -56 c3 -18 15 -44 25 -57 18 -22 18 -25 2
-52 -38 -64 -83 -35 -91 57 -4 47 -2 60 14 71 28 21 42 16 50 -19z m1222 -51
c4 -41 -9 -48 -40 -20 -21 19 -23 34 -6 51 23 23 43 9 46 -31z m-563 2 c8 -24
-8 -39 -42 -39 -30 0 -35 12 -17 38 19 28 51 28 59 1z m1123 -3 c5 -25 -14
-36 -63 -36 l-40 1 35 29 c38 33 63 35 68 6z m101 -10 c15 -33 5 -47 -26 -35
-15 5 -23 17 -23 32 0 46 27 48 49 3z m-1699 -26 c0 -6 -4 -18 -9 -28 -5 -9
-12 -25 -15 -35 -7 -21 -30 -18 -34 4 -1 9 7 27 18 42 22 27 40 35 40 17z
m-603 -36 c-3 -4 -14 -3 -24 0 -15 6 -15 8 -3 16 16 10 39 -4 27 -16z m827
-13 c16 -18 16 -22 -19 -92 -20 -40 -39 -93 -42 -116 -9 -69 -20 -59 -27 26
-7 73 -6 81 18 116 14 21 26 48 26 61 0 29 21 31 44 5z m336 -8 c0 -22 -2 -25
-10 -13 -13 20 -13 40 0 40 6 0 10 -12 10 -27z m-833 -33 c27 -54 29 -107 6
-132 -21 -23 -59 -23 -72 0 -8 16 -5 139 5 170 8 26 39 6 61 -38z m-382 31 c7
-12 -12 -24 -25 -16 -11 7 -4 25 10 25 5 0 11 -4 15 -9z m189 3 c13 -5 14 -9
5 -20 -9 -11 -15 -11 -25 -3 -8 6 -11 15 -8 20 6 11 8 11 28 3z m900 -29 c-18
-14 -18 -15 -1 -46 20 -35 15 -49 -11 -33 -9 6 -18 26 -20 44 -3 33 9 50 37
50 11 0 9 -4 -5 -15z m496 -5 c11 -11 20 -33 20 -50 0 -43 24 -38 56 10 28 41
46 47 52 16 7 -34 -106 -148 -116 -118 -7 23 -33 42 -56 42 -15 0 -26 -10 -35
-32 l-13 -33 -12 39 c-7 22 -18 42 -24 44 -14 4 -27 66 -18 87 9 24 120 21
146 -5z m-290 -15 c0 -16 -6 -25 -15 -25 -18 0 -20 21 -3 38 17 17 18 16 18
-13z m1040 -11 c0 -21 -4 -33 -10 -29 -17 10 -11 65 7 65 2 0 3 -16 3 -36z
m-953 -19 c-15 -14 -36 -25 -45 -25 -12 0 -9 7 13 25 40 33 69 33 32 0z m723
-14 c0 -5 -7 -14 -15 -21 -20 -16 -19 -34 2 -51 15 -13 13 -15 -18 -19 -28 -4
-36 -11 -45 -40 -14 -44 -34 -51 -34 -13 0 34 -16 53 -45 53 -31 0 -37 11 -18
32 21 23 36 23 58 -2 l18 -20 25 22 c13 13 28 33 33 46 8 21 39 32 39 13z
m460 -31 c8 -5 12 -12 8 -15 -9 -9 -48 4 -48 16 0 12 21 11 40 -1z m-1923 -16
c7 -19 -32 -53 -61 -54 -23 0 -56 27 -56 46 0 12 25 18 88 22 13 1 25 -5 29
-14z m1848 -51 c13 -46 69 -91 126 -101 39 -7 42 -9 24 -19 -56 -29 -71 -26
-137 32 -34 30 -66 55 -70 55 -16 0 -7 34 14 57 25 27 29 24 43 -24z m-1515 7
c0 -11 -4 -20 -10 -20 -5 0 -10 2 -10 4 0 2 -3 11 -6 20 -4 11 -1 16 10 16 9
0 16 -8 16 -20z m890 7 c0 -7 -14 -26 -30 -42 -26 -25 -34 -27 -57 -19 -36 12
-34 24 6 51 37 25 81 31 81 10z m323 -1 c3 -8 22 -19 41 -26 35 -11 45 -23 28
-34 -5 -3 -30 1 -58 8 -42 10 -49 16 -52 39 -3 21 1 27 16 27 11 0 22 -6 25
-14z m-849 -34 c-3 -55 -86 -153 -116 -135 -13 7 19 59 46 76 14 10 30 35 37
57 14 46 35 48 33 2z m-1044 -8 c0 -18 -24 -18 -39 0 -9 11 -9 15 1 19 19 6
38 -3 38 -19z m935 7 c7 -12 -12 -24 -25 -16 -11 7 -4 25 10 25 5 0 11 -4 15
-9z m-185 -13 c0 -7 -5 -31 -11 -53 -10 -37 -12 -38 -25 -20 -15 20 -19 67 -7
78 11 12 43 8 43 -5z m-940 -17 c0 -12 -20 -25 -27 -18 -7 7 6 27 18 27 5 0 9
-4 9 -9z m654 -16 c6 -16 -53 -85 -73 -85 -21 0 -11 44 16 72 30 31 48 35 57
13z m-202 -27 c3 -29 6 -33 31 -31 15 1 27 -2 27 -7 0 -15 -39 -31 -68 -28
-31 3 -39 29 -23 71 14 37 29 34 33 -5z m1058 -46 l0 -57 -40 45 c-21 25 -39
48 -40 51 0 8 63 27 73 22 4 -2 7 -30 7 -61z m-720 43 c0 -16 -35 -21 -44 -6
-8 12 4 21 26 21 10 0 18 -7 18 -15z m1105 -12 c11 -15 15 -15 29 -4 24 20 46
6 46 -28 0 -36 13 -46 39 -29 25 15 45 0 35 -25 -9 -25 -59 -21 -109 9 -57 33
-89 29 -93 -11 -2 -16 -8 -34 -14 -40 -16 -15 0 95 18 123 17 26 32 28 49 5z
m-1649 -51 c-9 -8 -26 10 -26 26 1 15 2 15 15 -2 8 -11 13 -21 11 -24z m1110
1 c-11 -11 -19 6 -11 24 8 17 8 17 12 0 3 -10 2 -21 -1 -24z m-446 -28 c0 -8
-7 -15 -15 -15 -9 0 -12 6 -9 15 4 8 10 15 15 15 5 0 9 -7 9 -15z m1518 -17
c-2 -18 -7 -33 -13 -33 -5 0 -11 15 -13 33 -3 24 1 32 13 32 12 0 16 -8 13
-32z m-309 -24 c-6 -7 -15 -11 -21 -8 -5 3 -4 12 3 20 6 7 15 11 21 8 5 -3 4
-12 -3 -20z m-1331 -2 c3 -9 -3 -13 -19 -10 -12 1 -24 9 -27 16 -3 9 3 13 19
10 12 -1 24 -9 27 -16z m1902 -37 c0 -8 -9 -15 -20 -15 -20 0 -26 11 -13 23
12 13 33 7 33 -8z m-870 -77 c0 -13 -17 -9 -34 8 -23 22 -8 39 15 18 10 -9 19
-21 19 -26z"/>
<path d="M2432 4113 c-19 -8 -4 -23 24 -23 16 0 24 5 22 13 -5 13 -26 18 -46
10z"/>
<path d="M2230 3101 c-19 -10 -36 -27 -38 -39 -4 -25 32 -38 137 -47 l74 -7
-28 36 c-15 20 -38 39 -51 42 -13 3 -28 12 -35 20 -15 18 -17 18 -59 -5z"/>
<path d="M3530 3112 c0 -5 -11 -15 -25 -22 -32 -17 -34 -50 -2 -50 13 0 28 5
35 12 14 14 16 68 2 68 -5 0 -10 -4 -10 -8z"/>
<path d="M2285 2780 c-12 -19 10 -32 51 -28 27 2 39 8 39 18 0 19 -79 27 -90
10z"/>
</g>
</svg>
