{
  "accessors": [
    {
      "bufferView": 2,
      "componentType": 5126,
      "count": 3015,
      "max": [
        18.485124588012695,
        144.64720153808594,
        16.441665649414063
      ],
      "min": [
        -18.719100952148438,
        -0.011599448509514332,
        -24.162925720214844
      ],
      "type": "VEC3"
    },
    {
      "bufferView": 2,
      "byteOffset": 36180,
      "componentType": 5126,
      "count": 3015,
      "max": [
        0.9976930618286133,
        0.9995599985122681,
        0.9997954964637756
      ],
      "min": [
        -0.9995282888412476,
        -0.9654295444488525,
        -0.9856598973274231
      ],
      "type": "VEC3"
    },
    {
      "bufferView": 3,
      "componentType": 5126,
      "count": 3015,
      "max": [
        0.9998539686203003,
        0.9985670447349548,
        0.9993835091590881,
        1.0
      ],
      "min": [
        -0.9990306496620178,
        -0.9998337030410767,
        -0.9995566010475159,
        -1.0
      ],
      "type": "VEC4"
    },
    {
      "bufferView": 1,
      "componentType": 5126,
      "count": 3015,
      "max": [
        0.994850754737854,
        0.9922078847885132
      ],
      "min": [
        0.004409002140164375,
        0.0032162554562091827
      ],
      "type": "VEC2"
    },
    {
      "bufferView": 1,
      "byteOffset": 24120,
      "componentType": 5126,
      "count": 3015,
      "max": [
        1.0,
        0.9879447221755981
      ],
      "min": [
        1.0,
        -0.3232353627681732
      ],
      "type": "VEC2"
    },
    {
      "bufferView": 1,
      "byteOffset": 48240,
      "componentType": 5126,
      "count": 3015,
      "max": [
        0.994850754737854,
        0.9922078847885132
      ],
      "min": [
        0.004409002140164375,
        0.0032162554562091827
      ],
      "type": "VEC2"
    },
    {
      "bufferView": 0,
      "componentType": 5125,
      "count": 10887,
      "type": "SCALAR"
    },
    {
      "bufferView": 2,
      "byteOffset": 72360,
      "componentType": 5126,
      "count": 67,
      "max": [
        -0.35059690475463867,
        139.4317626953125,
        8.051877975463867
      ],
      "min": [
        -6.093919277191162,
        129.42605590820313,
        -2.995950937271118
      ],
      "type": "VEC3"
    },
    {
      "bufferView": 2,
      "byteOffset": 73164,
      "componentType": 5126,
      "count": 67,
      "max": [
        0.320292592048645,
        0.9369048476219177,
        0.9640112519264221
      ],
      "min": [
        -0.9993459582328796,
        -0.701956033706665,
        -0.9684095978736877
      ],
      "type": "VEC3"
    },
    {
      "bufferView": 3,
      "byteOffset": 48240,
      "componentType": 5126,
      "count": 67,
      "max": [
        0.9470927715301514,
        0.914980411529541,
        0.071543850004673,
        1.0
      ],
      "min": [
        -0.8555119037628174,
        -0.3270743787288666,
        -0.8753626942634583,
        1.0
      ],
      "type": "VEC4"
    },
    {
      "bufferView": 1,
      "byteOffset": 72360,
      "componentType": 5126,
      "count": 67,
      "max": [
        0.9938001036643982,
        0.9859998226165771
      ],
      "min": [
        0.0047395615838468075,
        0.0044645206071436405
      ],
      "type": "VEC2"
    },
    {
      "bufferView": 1,
      "byteOffset": 72896,
      "componentType": 5126,
      "count": 67,
      "max": [
        1.0,
        0.9420755505561829
      ],
      "min": [
        1.0,
        0.6678008437156677
      ],
      "type": "VEC2"
    },
    {
      "bufferView": 0,
      "byteOffset": 43548,
      "componentType": 5125,
      "count": 363,
      "type": "SCALAR"
    },
    {
      "bufferView": 2,
      "byteOffset": 73968,
      "componentType": 5126,
      "count": 2537,
      "max": [
        44.51474380493164,
        114.25967407226563,
        95.87374114990234
      ],
      "min": [
        17.9771728515625,
        -0.0112835094332695,
        75.47708129882813
      ],
      "type": "VEC3"
    },
    {
      "bufferView": 2,
      "byteOffset": 104412,
      "componentType": 5126,
      "count": 2537,
      "max": [
        0.9912046194076538,
        0.9997514486312866,
        0.9990686774253845
      ],
      "min": [
        -0.999851405620575,
        -0.9919373989105225,
        -0.9957531094551086
      ],
      "type": "VEC3"
    },
    {
      "bufferView": 3,
      "byteOffset": 49312,
      "componentType": 5126,
      "count": 2537,
      "max": [
        0.997069239616394,
        0.9923480749130249,
        0.9998159408569336,
        1.0
      ],
      "min": [
        -0.9994938969612122,
        -0.9980083107948303,
        -0.9988670349121094,
        -1.0
      ],
      "type": "VEC4"
    },
    {
      "bufferView": 1,
      "byteOffset": 73432,
      "componentType": 5126,
      "count": 2537,
      "max": [
        0.994850754737854,
        0.9157394170761108
      ],
      "min": [
        0.003319903975352645,
        0.005292117595672607
      ],
      "type": "VEC2"
    },
    {
      "bufferView": 1,
      "byteOffset": 93728,
      "componentType": 5126,
      "count": 2537,
      "max": [
        1.0,
        0.9920183420181274
      ],
      "min": [
        1.0,
        0.2703004777431488
      ],
      "type": "VEC2"
    },
    {
      "bufferView": 1,
      "byteOffset": 114024,
      "componentType": 5126,
      "count": 2537,
      "max": [
        0.994850754737854,
        0.9157394170761108
      ],
      "min": [
        0.003319903975352645,
        0.005292117595672607
      ],
      "type": "VEC2"
    },
    {
      "bufferView": 0,
      "byteOffset": 45000,
      "componentType": 5125,
      "count": 8793,
      "type": "SCALAR"
    },
    {
      "bufferView": 2,
      "byteOffset": 134856,
      "componentType": 5126,
      "count": 55,
      "max": [
        35.00237274169922,
        110.6839599609375,
        84.56707000732422
      ],
      "min": [
        32.45427703857422,
        107.4646987915039,
        80.49871826171875
      ],
      "type": "VEC3"
    },
    {
      "bufferView": 2,
      "byteOffset": 135516,
      "componentType": 5126,
      "count": 55,
      "max": [
        0.5423000454902649,
        0.984657883644104,
        0.9770112633705139
      ],
      "min": [
        -0.9771979451179504,
        -0.6868058443069458,
        -0.9694951176643372
      ],
      "type": "VEC3"
    },
    {
      "bufferView": 3,
      "byteOffset": 89904,
      "componentType": 5126,
      "count": 55,
      "max": [
        0.9976747632026672,
        0.9970510601997375,
        0.20872460305690765,
        1.0
      ],
      "min": [
        -0.7017517685890198,
        -0.5241425037384033,
        -0.28714415431022644,
        1.0
      ],
      "type": "VEC4"
    },
    {
      "bufferView": 1,
      "byteOffset": 134320,
      "componentType": 5126,
      "count": 55,
      "max": [
        0.9699711203575134,
        0.9768645763397217
      ],
      "min": [
        0.054794445633888245,
        0.026989838108420372
      ],
      "type": "VEC2"
    },
    {
      "bufferView": 1,
      "byteOffset": 134760,
      "componentType": 5126,
      "count": 55,
      "max": [
        1.0,
        0.9847615957260132
      ],
      "min": [
        1.0,
        0.6673198938369751
      ],
      "type": "VEC2"
    },
    {
      "bufferView": 0,
      "byteOffset": 80172,
      "componentType": 5125,
      "count": 231,
      "type": "SCALAR"
    },
    {
      "bufferView": 2,
      "byteOffset": 136176,
      "componentType": 5126,
      "count": 2545,
      "max": [
        27.875722885131836,
        134.05050659179688,
        63.515602111816406
      ],
      "min": [
        5.4325408935546875,
        -0.011048837564885616,
        30.557525634765625
      ],
      "type": "VEC3"
    },
    {
      "bufferView": 2,
      "byteOffset": 166716,
      "componentType": 5126,
      "count": 2545,
      "max": [
        0.9932164549827576,
        0.9999977350234985,
        0.997576892375946
      ],
      "min": [
        -0.9998695850372314,
        -0.9698126316070557,
        -0.9943210482597351
      ],
      "type": "VEC3"
    },
    {
      "bufferView": 3,
      "byteOffset": 90784,
      "componentType": 5126,
      "count": 2545,
      "max": [
        0.9823689460754395,
        0.9996619820594788,
        0.9966446757316589,
        1.0
      ],
      "min": [
        -0.9992451071739197,
        -0.9999919533729553,
        -0.9995656609535217,
        -1.0
      ],
      "type": "VEC4"
    },
    {
      "bufferView": 1,
      "byteOffset": 135200,
      "componentType": 5126,
      "count": 2545,
      "max": [
        0.994850754737854,
        0.9597247838973999
      ],
      "min": [
        0.004409002140164375,
        0.005292117595672607
      ],
      "type": "VEC2"
    },
    {
      "bufferView": 1,
      "byteOffset": 155560,
      "componentType": 5126,
      "count": 2545,
      "max": [
        1.0,
        0.9898578524589539
      ],
      "min": [
        0.9999999403953552,
        0.27490755915641785
      ],
      "type": "VEC2"
    },
    {
      "bufferView": 1,
      "byteOffset": 175920,
      "componentType": 5126,
      "count": 2545,
      "max": [
        0.994850754737854,
        0.9597247838973999
      ],
      "min": [
        0.004409002140164375,
        0.005292117595672607
      ],
      "type": "VEC2"
    },
    {
      "bufferView": 0,
      "byteOffset": 81096,
      "componentType": 5125,
      "count": 8892,
      "type": "SCALAR"
    },
    {
      "bufferView": 2,
      "byteOffset": 197256,
      "componentType": 5126,
      "count": 89,
      "max": [
        17.271652221679688,
        129.78146362304688,
        50.63391876220703
      ],
      "min": [
        13.328353881835938,
        122.36015319824219,
        42.653099060058594
      ],
      "type": "VEC3"
    },
    {
      "bufferView": 2,
      "byteOffset": 198324,
      "componentType": 5126,
      "count": 89,
      "max": [
        0.8657525777816772,
        0.9916324615478516,
        0.8905742168426514
      ],
      "min": [
        -0.9866822957992554,
        -0.7227097153663635,
        -0.8123915195465088
      ],
      "type": "VEC3"
    },
    {
      "bufferView": 3,
      "byteOffset": 131504,
      "componentType": 5126,
      "count": 89,
      "max": [
        0.8176093697547913,
        0.9775983095169067,
        0.9997697472572327,
        1.0
      ],
      "min": [
        -0.7785186171531677,
        -0.9549795389175415,
        -0.7545863389968872,
        -1.0
      ],
      "type": "VEC4"
    },
    {
      "bufferView": 1,
      "byteOffset": 196280,
      "componentType": 5126,
      "count": 89,
      "max": [
        0.9567931294441223,
        1.0058038234710693
      ],
      "min": [
        0.01891687884926796,
        0.06715726852416992
      ],
      "type": "VEC2"
    },
    {
      "bufferView": 1,
      "byteOffset": 196992,
      "componentType": 5126,
      "count": 89,
      "max": [
        1.0,
        0.9713696241378784
      ],
      "min": [
        1.0,
        0.5894778966903687
      ],
      "type": "VEC2"
    },
    {
      "bufferView": 0,
      "byteOffset": 116664,
      "componentType": 5125,
      "count": 429,
      "type": "SCALAR"
    }
  ],
  "asset": {
    "extras": {
      "author": "Cosmic_dust (https://sketchfab.com/Cosmic_dust)",
      "license": "CC-BY-4.0 (http://creativecommons.org/licenses/by/4.0/)",
      "source": "https://sketchfab.com/3d-models/sunflower-d9925ea428a441deb34de06434b4bf1d",
      "title": "Sunflower"
    },
    "generator": "Sketchfab-16.32.0",
    "version": "2.0"
  },
  "bufferViews": [
    {
      "buffer": 0,
      "byteLength": 118380,
      "name": "floatBufferViews",
      "target": 34963
    },
    {
      "buffer": 0,
      "byteLength": 197704,
      "byteOffset": 118380,
      "byteStride": 8,
      "name": "floatBufferViews",
      "target": 34962
    },
    {
      "buffer": 0,
      "byteLength": 199392,
      "byteOffset": 316084,
      "byteStride": 12,
      "name": "floatBufferViews",
      "target": 34962
    },
    {
      "buffer": 0,
      "byteLength": 132928,
      "byteOffset": 515476,
      "byteStride": 16,
      "name": "floatBufferViews",
      "target": 34962
    }
  ],
  "buffers": [
    {
      "byteLength": 648404,
      "uri": "scene.bin"
    }
  ],
  "extensionsRequired": [
    "KHR_materials_pbrSpecularGlossiness"
  ],
  "extensionsUsed": [
    "KHR_materials_pbrSpecularGlossiness"
  ],
  "images": [
    {
      "uri": "textures/PrimeColor_diffuse.png"
    },
    {
      "uri": "textures/PrimeColor_normal.png"
    },
    {
      "uri": "textures/lambert4_diffuse.jpeg"
    },
    {
      "uri": "textures/lambert4_normal.png"
    }
  ],
  "materials": [
    {
      "alphaMode": "BLEND",
      "doubleSided": true,
      "extensions": {
        "KHR_materials_pbrSpecularGlossiness": {
          "diffuseFactor": [
            1.0,
            1.0,
            1.0,
            1.0
          ],
          "diffuseTexture": {
            "index": 0
          },
          "glossinessFactor": 0.4,
          "specularFactor": [
            0.0,
            0.0,
            0.0
          ]
        }
      },
      "name": "PrimeColor",
      "normalTexture": {
        "index": 1
      }
    },
    {
      "doubleSided": true,
      "extensions": {
        "KHR_materials_pbrSpecularGlossiness": {
          "diffuseFactor": [
            1.0,
            1.0,
            1.0,
            1.0
          ],
          "diffuseTexture": {
            "index": 2
          },
          "glossinessFactor": 0.4,
          "specularFactor": [
            0.0,
            0.0,
            0.0
          ]
        }
      },
      "name": "lambert4",
      "normalTexture": {
        "index": 3
      }
    }
  ],
  "meshes": [
    {
      "name": "sunflower_big_PrimeColor_0",
      "primitives": [
        {
          "attributes": {
            "NORMAL": 1,
            "POSITION": 0,
            "TANGENT": 2,
            "TEXCOORD_0": 3,
            "TEXCOORD_1": 4,
            "TEXCOORD_2": 5
          },
          "indices": 6,
          "material": 0,
          "mode": 4
        }
      ]
    },
    {
      "name": "sunflower_big_lambert4_0",
      "primitives": [
        {
          "attributes": {
            "NORMAL": 8,
            "POSITION": 7,
            "TANGENT": 9,
            "TEXCOORD_0": 10,
            "TEXCOORD_1": 11
          },
          "indices": 12,
          "material": 1,
          "mode": 4
        }
      ]
    },
    {
      "name": "sunflower_mid_PrimeColor_0",
      "primitives": [
        {
          "attributes": {
            "NORMAL": 14,
            "POSITION": 13,
            "TANGENT": 15,
            "TEXCOORD_0": 16,
            "TEXCOORD_1": 17,
            "TEXCOORD_2": 18
          },
          "indices": 19,
          "material": 0,
          "mode": 4
        }
      ]
    },
    {
      "name": "sunflower_mid_lambert4_0",
      "primitives": [
        {
          "attributes": {
            "NORMAL": 21,
            "POSITION": 20,
            "TANGENT": 22,
            "TEXCOORD_0": 23,
            "TEXCOORD_1": 24
          },
          "indices": 25,
          "material": 1,
          "mode": 4
        }
      ]
    },
    {
      "name": "sunflower_small_PrimeColor_0",
      "primitives": [
        {
          "attributes": {
            "NORMAL": 27,
            "POSITION": 26,
            "TANGENT": 28,
            "TEXCOORD_0": 29,
            "TEXCOORD_1": 30,
            "TEXCOORD_2": 31
          },
          "indices": 32,
          "material": 0,
          "mode": 4
        }
      ]
    },
    {
      "name": "sunflower_small_lambert4_0",
      "primitives": [
        {
          "attributes": {
            "NORMAL": 34,
            "POSITION": 33,
            "TANGENT": 35,
            "TEXCOORD_0": 36,
            "TEXCOORD_1": 37
          },
          "indices": 38,
          "material": 1,
          "mode": 4
        }
      ]
    }
  ],
  "nodes": [
    {
      "children": [
        1
      ],
      "matrix": [
        1.0,
        0.0,
        0.0,
        0.0,
        0.0,
        2.220446049250313e-16,
        -1.0,
        0.0,
        0.0,
        1.0,
        2.220446049250313e-16,
        0.0,
        0.0,
        0.0,
        0.0,
        1.0
      ],
      "name": "Sketchfab_model"
    },
    {
      "children": [
        2
      ],
      "matrix": [
        1.0,
        0.0,
        0.0,
        0.0,
        0.0,
        0.0,
        1.0,
        0.0,
        0.0,
        -1.0,
        0.0,
        0.0,
        0.0,
        0.0,
        0.0,
        1.0
      ],
      "name": "a0a982767ba64fd798353c29e02d06c2.fbx"
    },
    {
      "children": [
        3,
        6,
        9
      ],
      "name": "RootNode"
    },
    {
      "children": [
        4,
        5
      ],
      "matrix": [
        0.009999999776482582,
        0.0,
        0.0,
        0.0,
        0.0,
        0.009999999776482582,
        0.0,
        0.0,
        0.0,
        0.0,
        0.009999999776482582,
        0.0,
        1.3877787807814457e-17,
        0.0,
        0.0,
        1.0
      ],
      "name": "sunflower_big"
    },
    {
      "mesh": 0,
      "name": "sunflower_big_PrimeColor_0"
    },
    {
      "mesh": 1,
      "name": "sunflower_big_lambert4_0"
    },
    {
      "children": [
        7,
        8
      ],
      "matrix": [
        0.009999999776482582,
        0.0,
        0.0,
        0.0,
        0.0,
        0.009999999776482582,
        0.0,
        0.0,
        0.0,
        0.0,
        0.009999999776482582,
        0.0,
        0.0,
        0.0,
        0.0,
        1.0
      ],
      "name": "sunflower_mid"
    },
    {
      "mesh": 2,
      "name": "sunflower_mid_PrimeColor_0"
    },
    {
      "mesh": 3,
      "name": "sunflower_mid_lambert4_0"
    },
    {
      "children": [
        10,
        11
      ],
      "matrix": [
        0.009999999776482582,
        0.0,
        0.0,
        0.0,
        0.0,
        0.009999999776482582,
        0.0,
        0.0,
        0.0,
        0.0,
        0.009999999776482582,
        0.0,
        0.0,
        0.0,
        0.0,
        1.0
      ],
      "name": "sunflower_small"
    },
    {
      "mesh": 4,
      "name": "sunflower_small_PrimeColor_0"
    },
    {
      "mesh": 5,
      "name": "sunflower_small_lambert4_0"
    }
  ],
  "samplers": [
    {
      "magFilter": 9729,
      "minFilter": 9987,
      "wrapS": 10497,
      "wrapT": 10497
    }
  ],
  "scene": 0,
  "scenes": [
    {
      "name": "Sketchfab_Scene",
      "nodes": [
        0
      ]
    }
  ],
  "textures": [
    {
      "sampler": 0,
      "source": 0
    },
    {
      "sampler": 0,
      "source": 1
    },
    {
      "sampler": 0,
      "source": 2
    },
    {
      "sampler": 0,
      "source": 3
    }
  ]
}
