{
  "accessors": [
    {
      "bufferView": 2,
      "componentType": 5126,
      "count": 19060,
      "max": [
        0.7303900122642517,
        0.8120980262756348,
        0.9444109797477722
      ],
      "min": [
        -0.7300530076026917,
        -0.8125659823417664,
        -0.9531000256538391
      ],
      "type": "VEC3"
    },
    {
      "bufferView": 2,
      "byteOffset": 228720,
      "componentType": 5126,
      "count": 19060,
      "max": [
        0.9999830722808838,
        0.9992949962615967,
        0.9996694922447205
      ],
      "min": [
        -0.9999638795852661,
        -0.999534547328949,
        -0.9999877214431763
      ],
      "type": "VEC3"
    },
    {
      "bufferView": 3,
      "componentType": 5126,
      "count": 19060,
      "max": [
        0.9999638795852661,
        0.9999128580093384,
        0.9998239278793335,
        1.0
      ],
      "min": [
        -0.9999489188194275,
        -0.9998942613601685,
        -0.9991406798362732,
        -1.0
      ],
      "type": "VEC4"
    },
    {
      "bufferView": 1,
      "componentType": 5126,
      "count": 19060,
      "max": [
        0.9992830157279968,
        0.9957420229911804
      ],
      "min": [
        0.0007169999880716205,
        0.0007169999880716205
      ],
      "type": "VEC2"
    },
    {
      "bufferView": 0,
      "componentType": 5125,
      "count": 90066,
      "type": "SCALAR"
    }
  ],
  "asset": {
    "extras": {
      "author": "iamlazy (https://sketchfab.com/iamrob88)",
      "license": "CC-BY-4.0 (http://creativecommons.org/licenses/by/4.0/)",
      "source": "https://sketchfab.com/3d-models/alien-creature-with-muscular-body-4e0afb0fa9174f7bb304b1eceff2ba84",
      "title": "Alien creature with muscular body"
    },
    "generator": "Sketchfab-16.56.0",
    "version": "2.0"
  },
  "bufferViews": [
    {
      "buffer": 0,
      "byteLength": 360264,
      "name": "floatBufferViews",
      "target": 34963
    },
    {
      "buffer": 0,
      "byteLength": 152480,
      "byteOffset": 360264,
      "byteStride": 8,
      "name": "floatBufferViews",
      "target": 34962
    },
    {
      "buffer": 0,
      "byteLength": 457440,
      "byteOffset": 512744,
      "byteStride": 12,
      "name": "floatBufferViews",
      "target": 34962
    },
    {
      "buffer": 0,
      "byteLength": 304960,
      "byteOffset": 970184,
      "byteStride": 16,
      "name": "floatBufferViews",
      "target": 34962
    }
  ],
  "buffers": [
    {
      "byteLength": 1275144,
      "uri": "scene.bin"
    }
  ],
  "images": [
    {
      "uri": "textures/material_0_baseColor.png"
    },
    {
      "uri": "textures/material_0_metallicRoughness.png"
    },
    {
      "uri": "textures/material_0_normal.png"
    }
  ],
  "materials": [
    {
      "doubleSided": true,
      "name": "material_0",
      "normalTexture": {
        "index": 2
      },
      "pbrMetallicRoughness": {
        "baseColorTexture": {
          "index": 0
        },
        "metallicRoughnessTexture": {
          "index": 1
        }
      }
    }
  ],
  "meshes": [
    {
      "name": "Object_0",
      "primitives": [
        {
          "attributes": {
            "NORMAL": 1,
            "POSITION": 0,
            "TANGENT": 2,
            "TEXCOORD_0": 3
          },
          "indices": 4,
          "material": 0,
          "mode": 4
        }
      ]
    }
  ],
  "nodes": [
    {
      "children": [
        1
      ],
      "matrix": [
        1.0,
        0.0,
        0.0,
        0.0,
        0.0,
        2.220446049250313e-16,
        -1.0,
        0.0,
        0.0,
        1.0,
        2.220446049250313e-16,
        0.0,
        0.0,
        0.0,
        0.0,
        1.0
      ],
      "name": "Sketchfab_model"
    },
    {
      "children": [
        2
      ],
      "name": "base.obj.cleaner.materialmerger.gles"
    },
    {
      "mesh": 0,
      "name": "Object_2"
    }
  ],
  "samplers": [
    {
      "magFilter": 9729,
      "minFilter": 9987,
      "wrapS": 10497,
      "wrapT": 10497
    }
  ],
  "scene": 0,
  "scenes": [
    {
      "name": "Sketchfab_Scene",
      "nodes": [
        0
      ]
    }
  ],
  "textures": [
    {
      "sampler": 0,
      "source": 0
    },
    {
      "sampler": 0,
      "source": 1
    },
    {
      "sampler": 0,
      "source": 2
    }
  ]
}
