{
  "accessors": [
    {
      "bufferView": 2,
      "componentType": 5126,
      "count": 36755,
      "max": [
        84.34920501708984,
        -58.374244689941406,
        32.13139724731445
      ],
      "min": [
        -10.394136428833008,
        -318.7171325683594,
        -13.897927284240723
      ],
      "type": "VEC3"
    },
    {
      "bufferView": 2,
      "byteOffset": 441060,
      "componentType": 5126,
      "count": 36755,
      "max": [
        0.9999992251396179,
        0.9999998211860657,
        0.9999885559082031
      ],
      "min": [
        -0.9999991655349731,
        -0.9999997615814209,
        -0.999981701374054
      ],
      "type": "VEC3"
    },
    {
      "bufferView": 1,
      "componentType": 5126,
      "count": 36755,
      "max": [
        1.0,
        1.0
      ],
      "min": [
        0.0,
        0.0
      ],
      "type": "VEC2"
    },
    {
      "bufferView": 0,
      "componentType": 5125,
      "count": 208776,
      "type": "SCALAR"
    },
    {
      "bufferView": 2,
      "byteOffset": 882120,
      "componentType": 5126,
      "count": 6852,
      "max": [
        153.12095642089844,
        -92.64698028564453,
        81.26553344726563
      ],
      "min": [
        -63.046016693115234,
        -175.63710021972656,
        -31.760223388671875
      ],
      "type": "VEC3"
    },
    {
      "bufferView": 2,
      "byteOffset": 964344,
      "componentType": 5126,
      "count": 6852,
      "max": [
        0.7556325197219849,
        0.9999995231628418,
        0.9025611281394958
      ],
      "min": [
        -0.8990384936332703,
        -0.9999377131462097,
        -0.8264299631118774
      ],
      "type": "VEC3"
    },
    {
      "bufferView": 1,
      "byteOffset": 294040,
      "componentType": 5126,
      "count": 6852,
      "max": [
        0.9685392379760742,
        0.9602928161621094
      ],
      "min": [
        0.0111007085070014,
        0.039707183837890625
      ],
      "type": "VEC2"
    },
    {
      "bufferView": 0,
      "byteOffset": 835104,
      "componentType": 5125,
      "count": 39936,
      "type": "SCALAR"
    },
    {
      "bufferView": 2,
      "byteOffset": 1046568,
      "componentType": 5126,
      "count": 65532,
      "max": [
        52.87880325317383,
        -56.464569091796875,
        14.532854080200195
      ],
      "min": [
        32.38560104370117,
        -76.1176986694336,
        -8.242289543151855
      ],
      "type": "VEC3"
    },
    {
      "bufferView": 2,
      "byteOffset": 1832952,
      "componentType": 5126,
      "count": 65532,
      "max": [
        0.9999420642852783,
        0.9999679923057556,
        0.9999862313270569
      ],
      "min": [
        -0.9999938607215881,
        -0.9999850988388062,
        -0.9993939995765686
      ],
      "type": "VEC3"
    },
    {
      "bufferView": 1,
      "byteOffset": 348856,
      "componentType": 5126,
      "count": 65532,
      "max": [
        0.9951171875,
        0.990234375
      ],
      "min": [
        0.0048828125,
        0.009765625
      ],
      "type": "VEC2"
    },
    {
      "bufferView": 0,
      "byteOffset": 994848,
      "componentType": 5125,
      "count": 351156,
      "type": "SCALAR"
    },
    {
      "bufferView": 2,
      "byteOffset": 2619336,
      "componentType": 5126,
      "count": 65532,
      "max": [
        58.09305191040039,
        -49.20585250854492,
        7.695624828338623
      ],
      "min": [
        43.57038497924805,
        -63.88162612915039,
        0.9067897796630859
      ],
      "type": "VEC3"
    },
    {
      "bufferView": 2,
      "byteOffset": 3405720,
      "componentType": 5126,
      "count": 65532,
      "max": [
        0.9999977946281433,
        0.9999364018440247,
        0.9999831318855286
      ],
      "min": [
        -0.9999976754188538,
        -0.9999893307685852,
        -0.9999814033508301
      ],
      "type": "VEC3"
    },
    {
      "bufferView": 1,
      "byteOffset": 873112,
      "componentType": 5126,
      "count": 65532,
      "max": [
        0.9951171875,
        0.990234375
      ],
      "min": [
        0.0048828125,
        0.009765625
      ],
      "type": "VEC2"
    },
    {
      "bufferView": 0,
      "byteOffset": 2399472,
      "componentType": 5125,
      "count": 369888,
      "type": "SCALAR"
    },
    {
      "bufferView": 2,
      "byteOffset": 4192104,
      "componentType": 5126,
      "count": 65532,
      "max": [
        77.31993103027344,
        -28.002676010131836,
        37.513954162597656
      ],
      "min": [
        26.809049606323242,
        -70.1912841796875,
        -24.37299346923828
      ],
      "type": "VEC3"
    },
    {
      "bufferView": 2,
      "byteOffset": 4978488,
      "componentType": 5126,
      "count": 65532,
      "max": [
        0.9999976754188538,
        0.9997225999832153,
        0.9999970197677612
      ],
      "min": [
        -0.9999741911888123,
        -0.9999884366989136,
        -0.9999833106994629
      ],
      "type": "VEC3"
    },
    {
      "bufferView": 1,
      "byteOffset": 1397368,
      "componentType": 5126,
      "count": 65532,
      "max": [
        0.9951171875,
        0.990234375
      ],
      "min": [
        0.0048828125,
        0.009765625
      ],
      "type": "VEC2"
    },
    {
      "bufferView": 0,
      "byteOffset": 3879024,
      "componentType": 5125,
      "count": 346089,
      "type": "SCALAR"
    },
    {
      "bufferView": 2,
      "byteOffset": 5764872,
      "componentType": 5126,
      "count": 65532,
      "max": [
        79.05277252197266,
        -28.002676010131836,
        42.79652404785156
      ],
      "min": [
        13.547318458557129,
        -94.06594848632813,
        -34.77931594848633
      ],
      "type": "VEC3"
    },
    {
      "bufferView": 2,
      "byteOffset": 6551256,
      "componentType": 5126,
      "count": 65532,
      "max": [
        0.9999919533729553,
        0.9994562864303589,
        0.9998955130577087
      ],
      "min": [
        -0.9999910593032837,
        -0.9999596476554871,
        -0.997769832611084
      ],
      "type": "VEC3"
    },
    {
      "bufferView": 1,
      "byteOffset": 1921624,
      "componentType": 5126,
      "count": 65532,
      "max": [
        0.9951171875,
        0.990234375
      ],
      "min": [
        0.0048828125,
        0.009765625
      ],
      "type": "VEC2"
    },
    {
      "bufferView": 0,
      "byteOffset": 5263380,
      "componentType": 5125,
      "count": 345432,
      "type": "SCALAR"
    },
    {
      "bufferView": 2,
      "byteOffset": 7337640,
      "componentType": 5126,
      "count": 65532,
      "max": [
        62.72697830200195,
        -48.29729461669922,
        30.151098251342773
      ],
      "min": [
        18.287277221679688,
        -92.04161071777344,
        -22.176958084106445
      ],
      "type": "VEC3"
    },
    {
      "bufferView": 2,
      "byteOffset": 8124024,
      "componentType": 5126,
      "count": 65532,
      "max": [
        0.9999911785125732,
        0.99998939037323,
        0.9999791979789734
      ],
      "min": [
        -0.9999773502349854,
        -0.9999968409538269,
        -0.999999463558197
      ],
      "type": "VEC3"
    },
    {
      "bufferView": 1,
      "byteOffset": 2445880,
      "componentType": 5126,
      "count": 65532,
      "max": [
        0.9951171875,
        0.990234375
      ],
      "min": [
        0.0048828125,
        0.009765625
      ],
      "type": "VEC2"
    },
    {
      "bufferView": 0,
      "byteOffset": 6645108,
      "componentType": 5125,
      "count": 348486,
      "type": "SCALAR"
    },
    {
      "bufferView": 2,
      "byteOffset": 8910408,
      "componentType": 5126,
      "count": 65532,
      "max": [
        75.48086547851563,
        -30.179853439331055,
        34.679203033447266
      ],
      "min": [
        19.908294677734375,
        -89.90430450439453,
        -27.785476684570313
      ],
      "type": "VEC3"
    },
    {
      "bufferView": 2,
      "byteOffset": 9696792,
      "componentType": 5126,
      "count": 65532,
      "max": [
        0.9999933838844299,
        0.9998317956924438,
        0.9999831318855286
      ],
      "min": [
        -0.9999868869781494,
        -0.9999967813491821,
        -0.999999463558197
      ],
      "type": "VEC3"
    },
    {
      "bufferView": 1,
      "byteOffset": 2970136,
      "componentType": 5126,
      "count": 65532,
      "max": [
        0.9794921875,
        0.958984375
      ],
      "min": [
        0.0205078125,
        0.05859375
      ],
      "type": "VEC2"
    },
    {
      "bufferView": 0,
      "byteOffset": 8039052,
      "componentType": 5125,
      "count": 330543,
      "type": "SCALAR"
    },
    {
      "bufferView": 2,
      "byteOffset": 10483176,
      "componentType": 5126,
      "count": 65532,
      "max": [
        77.77774810791016,
        -32.111392974853516,
        39.66388702392578
      ],
      "min": [
        14.909627914428711,
        -92.46182250976563,
        -32.13670349121094
      ],
      "type": "VEC3"
    },
    {
      "bufferView": 2,
      "byteOffset": 11269560,
      "componentType": 5126,
      "count": 65532,
      "max": [
        0.9999745488166809,
        0.9999960064888,
        0.9999996423721313
      ],
      "min": [
        -0.9999673962593079,
        -0.9998757839202881,
        -0.9999598264694214
      ],
      "type": "VEC3"
    },
    {
      "bufferView": 1,
      "byteOffset": 3494392,
      "componentType": 5126,
      "count": 65532,
      "max": [
        0.9794921875,
        0.958984375
      ],
      "min": [
        0.0205078125,
        0.05859375
      ],
      "type": "VEC2"
    },
    {
      "bufferView": 0,
      "byteOffset": 9361224,
      "componentType": 5125,
      "count": 346764,
      "type": "SCALAR"
    },
    {
      "bufferView": 2,
      "byteOffset": 12055944,
      "componentType": 5126,
      "count": 47184,
      "max": [
        78.19353485107422,
        -29.112979888916016,
        41.178314208984375
      ],
      "min": [
        21.19283103942871,
        -89.56245422363281,
        -33.399566650390625
      ],
      "type": "VEC3"
    },
    {
      "bufferView": 2,
      "byteOffset": 12622152,
      "componentType": 5126,
      "count": 47184,
      "max": [
        0.9999929070472717,
        0.9999606013298035,
        0.9798410534858704
      ],
      "min": [
        -0.6790502667427063,
        -0.5687477588653564,
        -0.9979414939880371
      ],
      "type": "VEC3"
    },
    {
      "bufferView": 1,
      "byteOffset": 4018648,
      "componentType": 5126,
      "count": 47184,
      "max": [
        0.970703125,
        0.94140625
      ],
      "min": [
        0.029296875,
        0.05859375
      ],
      "type": "VEC2"
    },
    {
      "bufferView": 0,
      "byteOffset": 10748280,
      "componentType": 5125,
      "count": 265002,
      "type": "SCALAR"
    }
  ],
  "asset": {
    "extras": {
      "author": "HUuser2024 (https://sketchfab.com/HUuser2024)",
      "license": "CC-BY-4.0 (http://creativecommons.org/licenses/by/4.0/)",
      "source": "https://sketchfab.com/3d-models/blue-blossom-flower-2e4706d537ab485f9beb5f7c17aabca1",
      "title": "Blue blossom / flower"
    },
    "generator": "Sketchfab-16.16.0",
    "version": "2.0"
  },
  "bufferViews": [
    {
      "buffer": 0,
      "byteLength": 11808288,
      "name": "floatBufferViews",
      "target": 34963
    },
    {
      "buffer": 0,
      "byteLength": 4396120,
      "byteOffset": 11808288,
      "byteStride": 8,
      "name": "floatBufferViews",
      "target": 34962
    },
    {
      "buffer": 0,
      "byteLength": 13188360,
      "byteOffset": 16204408,
      "byteStride": 12,
      "name": "floatBufferViews",
      "target": 34962
    }
  ],
  "buffers": [
    {
      "byteLength": 29392768,
      "uri": "scene.bin"
    }
  ],
  "extensionsUsed": [
    "KHR_materials_specular"
  ],
  "materials": [
    {
      "doubleSided": true,
      "extensions": {
        "KHR_materials_specular": {
          "specularColorFactor": [
            1.0,
            1.0,
            1.0
          ],
          "specularFactor": 0.553489434055677
        }
      },
      "name": "material",
      "pbrMetallicRoughness": {
        "baseColorFactor": [
          0.06291227493605091,
          0.24219533424620543,
          0.059977195050223225,
          1.0
        ],
        "metallicFactor": 0.3772640600325124,
        "roughnessFactor": 0.5498150955441092
      }
    },
    {
      "doubleSided": true,
      "extensions": {
        "KHR_materials_specular": {
          "specularColorFactor": [
            1.0,
            1.0,
            1.0
          ],
          "specularFactor": 0.5717196451615215
        }
      },
      "name": "Mat.1",
      "pbrMetallicRoughness": {
        "baseColorFactor": [
          0.045847694371215365,
          0.24659423186693574,
          0.04297850382423296,
          1.0
        ],
        "metallicFactor": 0.3164966896796971,
        "roughnessFactor": 0.2095178215683432
      }
    },
    {
      "doubleSided": true,
      "extensions": {
        "KHR_materials_specular": {
          "specularColorFactor": [
            1.0,
            1.0,
            1.0
          ],
          "specularFactor": 1.0
        }
      },
      "name": "Mat.1_0",
      "pbrMetallicRoughness": {
        "baseColorFactor": [
          0.07501508264694742,
          0.11907427965924786,
          0.8114148022096483,
          1.0
        ],
        "metallicFactor": 0.395494271138357,
        "roughnessFactor": 0.5194314103677016
      }
    }
  ],
  "meshes": [
    {
      "name": "Null_Mat_0",
      "primitives": [
        {
          "attributes": {
            "NORMAL": 1,
            "POSITION": 0,
            "TEXCOORD_0": 2
          },
          "indices": 3,
          "material": 0,
          "mode": 4
        }
      ]
    },
    {
      "name": "Null_Mat.1_0",
      "primitives": [
        {
          "attributes": {
            "NORMAL": 5,
            "POSITION": 4,
            "TEXCOORD_0": 6
          },
          "indices": 7,
          "material": 1,
          "mode": 4
        }
      ]
    },
    {
      "name": "Null_Mat.1_0",
      "primitives": [
        {
          "attributes": {
            "NORMAL": 9,
            "POSITION": 8,
            "TEXCOORD_0": 10
          },
          "indices": 11,
          "material": 2,
          "mode": 4
        }
      ]
    },
    {
      "name": "Null_Mat.1_0",
      "primitives": [
        {
          "attributes": {
            "NORMAL": 13,
            "POSITION": 12,
            "TEXCOORD_0": 14
          },
          "indices": 15,
          "material": 2,
          "mode": 4
        }
      ]
    },
    {
      "name": "Null_Mat.1_0",
      "primitives": [
        {
          "attributes": {
            "NORMAL": 17,
            "POSITION": 16,
            "TEXCOORD_0": 18
          },
          "indices": 19,
          "material": 2,
          "mode": 4
        }
      ]
    },
    {
      "name": "Null_Mat.1_0",
      "primitives": [
        {
          "attributes": {
            "NORMAL": 21,
            "POSITION": 20,
            "TEXCOORD_0": 22
          },
          "indices": 23,
          "material": 2,
          "mode": 4
        }
      ]
    },
    {
      "name": "Null_Mat.1_0",
      "primitives": [
        {
          "attributes": {
            "NORMAL": 25,
            "POSITION": 24,
            "TEXCOORD_0": 26
          },
          "indices": 27,
          "material": 2,
          "mode": 4
        }
      ]
    },
    {
      "name": "Null_Mat.1_0",
      "primitives": [
        {
          "attributes": {
            "NORMAL": 29,
            "POSITION": 28,
            "TEXCOORD_0": 30
          },
          "indices": 31,
          "material": 2,
          "mode": 4
        }
      ]
    },
    {
      "name": "Null_Mat.1_0",
      "primitives": [
        {
          "attributes": {
            "NORMAL": 33,
            "POSITION": 32,
            "TEXCOORD_0": 34
          },
          "indices": 35,
          "material": 2,
          "mode": 4
        }
      ]
    },
    {
      "name": "Null_Mat.1_0",
      "primitives": [
        {
          "attributes": {
            "NORMAL": 37,
            "POSITION": 36,
            "TEXCOORD_0": 38
          },
          "indices": 39,
          "material": 2,
          "mode": 4
        }
      ]
    }
  ],
  "nodes": [
    {
      "children": [
        1
      ],
      "matrix": [
        1.0,
        0.0,
        0.0,
        0.0,
        0.0,
        2.220446049250313e-16,
        -1.0,
        0.0,
        0.0,
        1.0,
        2.220446049250313e-16,
        0.0,
        0.0,
        0.0,
        0.0,
        1.0
      ],
      "name": "Sketchfab_model"
    },
    {
      "children": [
        2
      ],
      "matrix": [
        0.009999999776482582,
        0.0,
        0.0,
        0.0,
        0.0,
        0.0,
        0.009999999776482582,
        0.0,
        0.0,
        -0.009999999776482582,
        0.0,
        0.0,
        0.0,
        0.0,
        0.0,
        1.0
      ],
      "name": "blossom.c4d.fbx"
    },
    {
      "children": [
        3
      ],
      "name": "RootNode"
    },
    {
      "children": [
        4,
        5,
        6,
        7,
        8,
        9,
        10,
        11,
        12,
        13
      ],
      "matrix": [
        1.0,
        0.0,
        0.0,
        0.0,
        0.0,
        1.0,
        0.0,
        0.0,
        0.0,
        0.0,
        1.0,
        0.0,
        -36.22038650512695,
        313.65576171875,
        -3.6128756999969482,
        1.0
      ],
      "name": "Null"
    },
    {
      "mesh": 0,
      "name": "Null_Mat_0"
    },
    {
      "mesh": 1,
      "name": "Null_Mat.1_0"
    },
    {
      "mesh": 2,
      "name": "Null_Mat.1_0"
    },
    {
      "mesh": 3,
      "name": "Null_Mat.1_0"
    },
    {
      "mesh": 4,
      "name": "Null_Mat.1_0"
    },
    {
      "mesh": 5,
      "name": "Null_Mat.1_0"
    },
    {
      "mesh": 6,
      "name": "Null_Mat.1_0"
    },
    {
      "mesh": 7,
      "name": "Null_Mat.1_0"
    },
    {
      "mesh": 8,
      "name": "Null_Mat.1_0"
    },
    {
      "mesh": 9,
      "name": "Null_Mat.1_0"
    }
  ],
  "scene": 0,
  "scenes": [
    {
      "name": "Sketchfab_Scene",
      "nodes": [
        0
      ]
    }
  ]
}
